<svg version="1.1" id="Layer_1" xmlns="http://www.w3.org/2000/svg" xmlns:xlink="http://www.w3.org/1999/xlink" x="0px" y="0px"
	 width="100%" viewBox="0 0 577 433" enable-background="new 0 0 577 433" xml:space="preserve">
<path fill="#000000" opacity="1.000000" stroke="none" 
	d="
M546.000000,434.000000 
	C364.000031,434.000000 182.500092,434.000000 1.000097,434.000000 
	C1.000065,289.666748 1.000065,145.333496 1.000032,1.000175 
	C193.333206,1.000117 385.666412,1.000117 577.999756,1.000058 
	C577.999817,145.333176 577.999817,289.666351 577.999878,433.999756 
	C567.500000,434.000000 557.000000,434.000000 546.000000,434.000000 
M426.990479,211.516769 
	C427.828766,213.007919 428.667023,214.499069 429.729614,216.389282 
	C430.537720,215.264893 430.654388,215.139877 430.728821,214.993408 
	C431.549316,213.378830 432.363251,211.760910 433.178986,210.143921 
	C433.794495,210.576324 434.985962,211.117905 434.928192,211.422699 
	C434.641174,212.937027 434.216553,214.492447 433.487274,215.842621 
	C431.625885,219.288513 429.576874,222.633057 427.602936,226.018158 
	C427.886841,226.435867 428.170746,226.853577 428.454651,227.271271 
	C432.306244,226.845657 436.157867,226.420059 440.139130,226.807709 
	C439.899780,230.547852 439.391632,234.295654 439.497772,238.025970 
	C439.601044,241.655426 436.649353,245.487442 439.972595,249.650192 
	C442.812683,246.391724 445.546478,243.793350 447.642120,240.754868 
	C455.462921,229.415253 460.421143,230.170090 473.109467,231.610947 
	C477.696869,232.131866 482.209259,233.313660 488.143402,234.462509 
	C485.672913,231.159271 484.251862,229.259216 483.201141,226.720337 
	C484.470734,224.087372 488.245941,222.047501 486.020386,218.567734 
	C484.361359,215.973892 481.803741,213.954773 479.480652,211.505066 
	C481.110138,210.732925 482.914154,209.878067 484.718170,209.023224 
	C484.722290,208.600204 484.726379,208.177185 484.730469,207.754166 
	C481.676880,207.090515 478.623291,206.426849 475.847351,205.823547 
	C475.019012,211.012833 474.358917,215.148163 472.965881,219.279129 
	C471.951141,218.184265 470.936371,217.089417 470.000031,215.163345 
	C469.277069,212.376526 468.554108,209.589691 467.828217,206.033035 
	C467.868988,204.406097 467.752625,202.756729 467.981262,201.156631 
	C468.570007,197.036453 469.392914,192.948914 469.941162,188.824280 
	C470.100708,187.624054 469.649872,186.342728 469.478882,185.098557 
	C468.338135,185.915466 467.059998,186.594559 466.079529,187.572174 
	C460.663727,192.972122 455.320496,198.444855 449.101044,204.009399 
	C439.866638,205.923431 431.211151,201.844543 421.940765,201.411972 
	C422.324463,202.694473 423.147888,203.394241 423.662201,204.274612 
	C424.898346,206.390533 425.989532,208.591171 426.990479,211.516769 
M303.785797,208.338120 
	C303.523834,217.235184 303.240265,226.131790 303.046051,235.030334 
	C303.032349,235.657822 303.677765,236.299683 304.541260,237.566971 
	C306.015717,237.711014 307.495911,237.812164 308.963593,238.007126 
	C313.397247,238.596100 315.562134,237.039612 315.046356,232.229630 
	C314.728729,229.267685 314.686768,226.201309 315.100555,223.263443 
	C315.355042,221.456604 316.702301,219.803650 317.558838,218.081589 
	C319.367096,219.703644 322.279236,221.053909 322.759094,223.003006 
	C323.834595,227.371658 323.700623,232.038086 324.103058,237.140015 
	C324.426056,237.242752 325.459991,237.712524 326.542114,237.892410 
	C332.713379,238.918289 334.004913,237.841507 333.991821,231.688583 
	C333.984741,228.364105 333.743164,225.034225 333.884583,221.718597 
	C333.932526,220.595520 334.559692,218.995651 335.414337,218.543121 
	C336.354889,218.045090 338.406311,218.136749 339.010895,218.821564 
	C340.331207,220.317017 341.606018,222.271469 341.875305,224.182693 
	C342.335266,227.447357 342.068756,230.824188 341.995880,234.151474 
	C341.916779,237.764572 344.213226,238.035507 346.974976,238.027512 
	C349.716553,238.019592 352.035980,237.792313 351.995361,234.174957 
	C351.937439,229.015778 352.217407,223.842697 351.935425,218.698456 
	C351.466461,210.145142 342.140533,205.547958 334.845947,210.060013 
	C333.789062,210.713745 332.164795,211.798050 331.436554,211.429916 
	C322.637146,206.982010 313.308350,209.302582 303.785797,208.338120 
M299.113464,209.038193 
	C295.501312,209.397308 291.889954,210.028595 288.276794,210.039246 
	C284.637177,210.049973 280.498810,208.222153 277.492035,209.444962 
	C274.358490,210.719315 272.315491,214.675262 269.982300,217.252609 
	C269.982300,213.648788 269.881653,209.496216 270.014557,205.351120 
	C270.118652,202.104111 268.687408,200.809677 265.528320,200.996246 
	C263.480713,201.117172 261.420166,201.018997 260.050812,201.018997 
	C259.643219,206.853409 259.301483,211.745178 258.959747,216.636948 
	C258.449249,216.730408 257.938751,216.823868 257.428253,216.917328 
	C254.784027,213.229126 252.087906,209.576782 249.507996,205.844116 
	C245.856308,200.560791 243.354172,199.752548 236.361649,202.544769 
	C236.244873,213.329498 236.108826,224.114136 236.054886,234.899170 
	C236.051300,235.615509 236.671936,236.334946 237.570206,237.626373 
	C238.381577,237.749573 239.190643,237.960785 240.004684,237.982117 
	C246.863190,238.162018 246.980759,238.040573 246.992447,231.245316 
	C246.998276,227.853821 246.993484,224.462311 246.993484,219.803452 
	C250.727142,225.347778 254.077774,229.603073 256.617310,234.297211 
	C259.152313,238.982971 263.081085,238.347885 266.897888,237.759583 
	C271.289368,237.082718 269.687225,233.264221 269.980988,230.518768 
	C270.069946,229.687241 270.102661,228.849670 270.220306,227.170746 
	C275.976410,238.325455 281.298401,240.385239 290.544434,235.879684 
	C293.023132,239.838074 296.867554,237.273254 300.693054,237.463577 
	C300.813171,229.686539 300.998138,221.909515 301.002106,214.132416 
	C301.002960,212.448151 300.353577,210.763550 299.113464,209.038193 
M97.748528,210.037567 
	C100.443741,210.023071 103.138962,210.008575 105.937065,210.928757 
	C105.953804,215.091736 105.845276,219.260101 106.023766,223.416122 
	C106.190491,227.298096 106.661934,231.166946 107.047104,235.851562 
	C108.705475,240.005081 112.158813,237.545792 114.742104,237.617920 
	C115.454582,237.637802 116.666687,234.966095 116.900940,233.416245 
	C117.270203,230.973114 116.951416,228.432709 117.021477,225.936218 
	C117.161499,220.946457 119.109612,219.584747 124.729912,220.732010 
	C124.820618,222.105011 124.980354,223.568054 125.003738,225.033264 
	C125.144691,233.864090 132.059830,239.419113 140.534470,237.686615 
	C142.343872,237.316727 144.420059,237.413162 146.202911,237.908356 
	C151.656601,239.423111 155.692459,237.150909 155.934021,231.713837 
	C156.208160,225.543594 155.997314,219.351791 155.997314,213.169373 
	C158.393829,218.073044 160.010559,223.058395 161.527039,228.074036 
	C164.578308,238.165817 166.071609,239.299332 175.683090,237.555969 
	C177.192352,237.282211 179.109283,235.710464 179.649612,234.287674 
	C181.463226,229.512268 182.672684,224.511230 184.243362,219.638458 
	C185.369278,216.145401 186.703140,212.719376 188.011353,209.076599 
	C183.670334,209.076599 180.105179,209.076599 176.907166,209.076599 
	C175.332809,213.245544 173.949066,216.909760 172.565323,220.573975 
	C172.046341,220.694061 171.527359,220.814133 171.008377,220.934219 
	C170.010010,218.225677 169.189774,215.431625 167.946121,212.840820 
	C167.206543,211.300064 165.861786,208.967514 164.684143,208.902863 
	C158.968613,208.589096 153.217926,208.949188 147.479034,209.015076 
	C144.234787,209.052322 140.777328,209.686874 137.795868,208.789703 
	C133.690811,207.554443 131.170181,208.942947 128.718903,211.768570 
	C128.138412,212.437698 127.245728,212.835999 126.530075,213.335526 
	C125.949867,211.415771 125.452980,209.771683 124.956093,208.127609 
	C124.733757,208.617889 124.511414,209.108154 124.289070,209.598434 
	C118.260857,209.311676 112.232635,209.024902 106.298927,208.742630 
	C105.699104,201.011887 105.699104,201.009888 98.593315,201.006668 
	C92.596977,201.003937 86.600037,201.057816 80.604553,200.986237 
	C77.365501,200.947586 76.004196,201.675842 76.245399,205.598572 
	C76.479813,209.411072 77.993217,210.344055 81.084244,209.959793 
	C85.136650,209.456009 86.353981,211.144531 86.089569,215.027695 
	C85.796043,219.338425 86.023582,223.684509 86.021378,228.015198 
	C86.016487,237.630493 86.015755,237.630493 95.961212,237.664062 
	C96.268295,236.303070 96.828140,234.944397 96.840714,233.580688 
	C96.912888,225.749161 96.855309,217.916428 97.748528,210.037567 
M217.026093,235.304947 
	C217.764221,239.992203 221.427475,237.724564 223.756241,237.763962 
	C224.818573,237.781921 226.829514,235.626877 226.857498,234.421356 
	C227.097122,224.097626 227.086349,213.763062 226.836075,203.439362 
	C226.805054,202.159668 225.065720,200.026260 223.890060,199.855225 
	C221.418991,199.495728 218.796463,200.177399 216.964066,200.359390 
	C216.597824,206.958954 216.267105,212.918152 215.904892,219.445023 
	C211.006287,209.878525 205.797226,207.159958 197.891815,208.488144 
	C189.191299,209.949905 186.695419,216.057953 186.149002,222.864944 
	C185.592896,229.792664 189.799622,235.998566 195.923508,237.189743 
	C199.502136,237.885803 203.567871,237.687164 207.085236,236.708176 
	C212.250107,235.270645 214.034592,230.588760 214.380615,225.249847 
	C214.921219,225.352524 215.461823,225.455200 216.002426,225.557861 
	C216.339325,228.510605 216.676239,231.463333 217.026093,235.304947 
M355.009003,215.581711 
	C354.686432,221.672775 354.234619,227.760712 354.087616,233.856003 
	C353.992798,237.787186 356.789062,238.078415 359.910217,238.049164 
	C362.928772,238.020874 365.113068,237.622253 365.040527,233.811569 
	C364.904968,226.687729 365.127380,219.554428 364.853577,212.438431 
	C364.808319,211.263489 363.150604,209.418716 361.969055,209.172043 
	C359.524078,208.661606 356.898102,209.018158 354.280396,209.018158 
	C354.597992,211.457123 354.808380,213.072723 355.009003,215.581711 
M396.970184,219.182678 
	C396.822144,214.557770 394.120544,211.722855 390.164642,212.041290 
	C386.782227,212.313568 384.491974,215.635162 385.013031,219.749008 
	C385.570709,224.152481 389.160767,224.305206 392.165039,223.824478 
	C393.889221,223.548553 395.302307,221.328476 396.970184,219.182678 
M364.394836,198.129105 
	C362.841248,197.557037 361.325745,196.823364 359.726196,196.446106 
	C356.255493,195.627579 353.652557,197.657913 354.121765,201.198914 
	C354.376007,203.117813 355.437042,205.870178 356.872070,206.464478 
	C358.858429,207.287033 362.591888,207.328644 363.664093,206.072098 
	C365.083801,204.408386 364.654877,201.167145 364.394836,198.129105 
z"/>
<path fill="#0A4521" opacity="1.000000" stroke="none" 
	d="
M95.181061,237.809967 
	C86.015755,237.630493 86.016487,237.630493 86.021378,228.015198 
	C86.023582,223.684509 85.796043,219.338425 86.089569,215.027695 
	C86.353981,211.144531 85.136650,209.456009 81.084244,209.959793 
	C77.993217,210.344055 76.479813,209.411072 76.245399,205.598572 
	C76.004196,201.675842 77.365501,200.947586 80.604553,200.986237 
	C86.600037,201.057816 92.596977,201.003937 98.593315,201.006668 
	C105.699104,201.009888 105.699104,201.011887 106.298927,208.742630 
	C112.232635,209.024902 118.260857,209.311676 124.289070,209.598434 
	C124.511414,209.108154 124.733757,208.617889 124.956093,208.127609 
	C125.452980,209.771683 125.949867,211.415771 126.530075,213.335526 
	C127.245728,212.835999 128.138412,212.437698 128.718903,211.768570 
	C131.170181,208.942947 133.690811,207.554443 137.795868,208.789703 
	C140.777328,209.686874 144.234787,209.052322 147.479034,209.015076 
	C153.217926,208.949188 158.968613,208.589096 164.684143,208.902863 
	C165.861786,208.967514 167.206543,211.300064 167.946121,212.840820 
	C169.189774,215.431625 170.010010,218.225677 171.008377,220.934219 
	C171.527359,220.814133 172.046341,220.694061 172.565323,220.573975 
	C173.949066,216.909760 175.332809,213.245544 176.907166,209.076599 
	C180.105179,209.076599 183.670334,209.076599 188.011353,209.076599 
	C186.703140,212.719376 185.369278,216.145401 184.243362,219.638458 
	C182.672684,224.511230 181.463226,229.512268 179.649612,234.287674 
	C179.109283,235.710464 177.192352,237.282211 175.683090,237.555969 
	C166.071609,239.299332 164.578308,238.165817 161.527039,228.074036 
	C160.010559,223.058395 158.393829,218.073044 155.997314,213.169373 
	C155.997314,219.351791 156.208160,225.543594 155.934021,231.713837 
	C155.692459,237.150909 151.656601,239.423111 146.202911,237.908356 
	C144.420059,237.413162 142.343872,237.316727 140.534470,237.686615 
	C132.059830,239.419113 125.144691,233.864090 125.003738,225.033264 
	C124.980354,223.568054 124.820618,222.105011 124.729912,220.732010 
	C119.109612,219.584747 117.161499,220.946457 117.021477,225.936218 
	C116.951416,228.432709 117.270203,230.973114 116.900940,233.416245 
	C116.666687,234.966095 115.454582,237.637802 114.742104,237.617920 
	C112.158813,237.545792 108.705475,240.005081 107.032440,234.973938 
	C107.017906,228.045303 107.113831,221.991898 106.963783,215.944611 
	C106.914368,213.952988 106.228836,211.977127 105.834175,209.994080 
	C103.138962,210.008575 100.443741,210.023071 97.027649,210.369141 
	C96.254799,215.505707 96.310333,220.315018 96.118622,225.114456 
	C95.949356,229.352020 95.504326,233.578552 95.181061,237.809967 
M141.177032,227.958664 
	C144.071594,227.292816 145.929962,225.484955 144.496933,222.665131 
	C143.536087,220.774460 141.207809,219.578735 139.491379,218.072052 
	C138.328400,219.652405 136.453049,221.114456 136.166504,222.840332 
	C135.716766,225.549011 136.556732,228.251678 141.177032,227.958664 
z"/>
<path fill="#0A4521" opacity="1.000000" stroke="none" 
	d="
M237.006516,202.001419 
	C243.354172,199.752548 245.856308,200.560791 249.507996,205.844116 
	C252.087906,209.576782 254.784027,213.229126 257.428253,216.917328 
	C257.938751,216.823868 258.449249,216.730408 258.959747,216.636948 
	C259.301483,211.745178 259.643219,206.853409 260.050812,201.018997 
	C261.420166,201.018997 263.480713,201.117172 265.528320,200.996246 
	C268.687408,200.809677 270.118652,202.104111 270.014557,205.351120 
	C269.881653,209.496216 269.982300,213.648788 269.982300,217.252609 
	C272.315491,214.675262 274.358490,210.719315 277.492035,209.444962 
	C280.498810,208.222153 284.637177,210.049973 288.276794,210.039246 
	C291.889954,210.028595 295.501312,209.397308 299.545532,209.519470 
	C299.980377,219.308899 299.983185,228.617050 299.985962,237.925186 
	C296.867554,237.273254 293.023132,239.838074 290.544434,235.879684 
	C281.298401,240.385239 275.976410,238.325455 270.220306,227.170746 
	C270.102661,228.849670 270.069946,229.687241 269.980988,230.518768 
	C269.687225,233.264221 271.289368,237.082718 266.897888,237.759583 
	C263.081085,238.347885 259.152313,238.982971 256.617310,234.297211 
	C254.077774,229.603073 250.727142,225.347778 246.993484,219.803452 
	C246.993484,224.462311 246.998276,227.853821 246.992447,231.245316 
	C246.980759,238.040573 246.863190,238.162018 240.004684,237.982117 
	C239.190643,237.960785 238.381577,237.749573 237.292999,236.865692 
	C237.012711,224.737152 237.009613,213.369293 237.006516,202.001419 
M288.329498,227.020416 
	C290.330719,225.164963 292.542938,223.090958 289.783844,220.508041 
	C288.475037,219.282776 286.208832,219.080215 284.376343,218.414322 
	C283.614227,220.731384 282.336121,223.059067 282.383423,225.359451 
	C282.398956,226.114929 285.850250,226.799713 288.329498,227.020416 
z"/>
<path fill="#0A4521" opacity="1.000000" stroke="none" 
	d="
M217.019623,234.860504 
	C216.676239,231.463333 216.339325,228.510605 216.002426,225.557861 
	C215.461823,225.455200 214.921219,225.352524 214.380615,225.249847 
	C214.034592,230.588760 212.250107,235.270645 207.085236,236.708176 
	C203.567871,237.687164 199.502136,237.885803 195.923508,237.189743 
	C189.799622,235.998566 185.592896,229.792664 186.149002,222.864944 
	C186.695419,216.057953 189.191299,209.949905 197.891815,208.488144 
	C205.797226,207.159958 211.006287,209.878525 215.904892,219.445023 
	C216.267105,212.918152 216.597824,206.958954 216.964066,200.359390 
	C218.796463,200.177399 221.418991,199.495728 223.890060,199.855225 
	C225.065720,200.026260 226.805054,202.159668 226.836075,203.439362 
	C227.086349,213.763062 227.097122,224.097626 226.857498,234.421356 
	C226.829514,235.626877 224.818573,237.781921 223.756241,237.763962 
	C221.427475,237.724564 217.764221,239.992203 217.019623,234.860504 
z"/>
<path fill="#0A4521" opacity="1.000000" stroke="none" 
	d="
M304.194733,209.025635 
	C313.308350,209.302582 322.637146,206.982010 331.436554,211.429916 
	C332.164795,211.798050 333.789062,210.713745 334.845947,210.060013 
	C342.140533,205.547958 351.466461,210.145142 351.935425,218.698456 
	C352.217407,223.842697 351.937439,229.015778 351.995361,234.174957 
	C352.035980,237.792313 349.716553,238.019592 346.974976,238.027512 
	C344.213226,238.035507 341.916779,237.764572 341.995880,234.151474 
	C342.068756,230.824188 342.335266,227.447357 341.875305,224.182693 
	C341.606018,222.271469 340.331207,220.317017 339.010895,218.821564 
	C338.406311,218.136749 336.354889,218.045090 335.414337,218.543121 
	C334.559692,218.995651 333.932526,220.595520 333.884583,221.718597 
	C333.743164,225.034225 333.984741,228.364105 333.991821,231.688583 
	C334.004913,237.841507 332.713379,238.918289 326.542114,237.892410 
	C325.459991,237.712524 324.426056,237.242752 324.103058,237.140015 
	C323.700623,232.038086 323.834595,227.371658 322.759094,223.003006 
	C322.279236,221.053909 319.367096,219.703644 317.558838,218.081589 
	C316.702301,219.803650 315.355042,221.456604 315.100555,223.263443 
	C314.686768,226.201309 314.728729,229.267685 315.046356,232.229630 
	C315.562134,237.039612 313.397247,238.596100 308.963593,238.007126 
	C307.495911,237.812164 306.015717,237.711014 304.280090,236.787292 
	C304.077515,227.013626 304.136108,218.019638 304.194733,209.025635 
z"/>
<path fill="#F1F5F0" opacity="1.000000" stroke="none" 
	d="
M482.830811,227.359177 
	C484.251862,229.259216 485.672913,231.159271 488.143402,234.462509 
	C482.209259,233.313660 477.696869,232.131866 473.109467,231.610947 
	C460.421143,230.170090 455.462921,229.415253 447.642120,240.754868 
	C445.546478,243.793350 442.812683,246.391724 439.972595,249.650192 
	C436.649353,245.487442 439.601044,241.655426 439.497772,238.025970 
	C439.391632,234.295654 439.899780,230.547852 440.210449,226.076538 
	C440.184113,224.897507 440.086456,224.449631 440.055084,223.648621 
	C440.367554,222.226364 440.613739,221.157272 440.994446,220.399521 
	C441.875275,221.556396 442.573242,222.451080 443.375549,223.239563 
	C448.793274,228.563858 452.585571,227.475571 455.162415,220.360794 
	C456.770294,215.921402 455.264526,212.366837 453.494263,208.516678 
	C453.665710,208.341446 454.008514,207.990829 454.351562,208.058319 
	C455.869690,209.088287 457.044739,210.050766 458.333496,211.387329 
	C458.642395,213.161301 458.837524,214.561172 459.064789,216.191437 
	C460.915161,215.817032 462.249451,215.547058 464.354156,215.121201 
	C462.379730,219.178360 460.673065,222.685349 458.957642,226.210266 
	C462.924377,226.210266 466.440613,226.210266 471.140930,226.210266 
	C469.612518,224.257584 468.778900,223.192566 467.949493,221.795532 
	C467.917511,221.245102 467.881317,221.026703 467.893738,220.874268 
	C467.942352,220.940262 467.807190,220.847519 468.140808,220.886505 
	C470.165588,221.971970 471.856750,223.018448 473.812744,224.329895 
	C476.995331,225.516296 479.913055,226.437744 482.830811,227.359177 
z"/>
<path fill="#0A4521" opacity="1.000000" stroke="none" 
	d="
M355.013885,215.135010 
	C354.808380,213.072723 354.597992,211.457123 354.280396,209.018158 
	C356.898102,209.018158 359.524078,208.661606 361.969055,209.172043 
	C363.150604,209.418716 364.808319,211.263489 364.853577,212.438431 
	C365.127380,219.554428 364.904968,226.687729 365.040527,233.811569 
	C365.113068,237.622253 362.928772,238.020874 359.910217,238.049164 
	C356.789062,238.078415 353.992798,237.787186 354.087616,233.856003 
	C354.234619,227.760712 354.686432,221.672775 355.013885,215.135010 
z"/>
<path fill="#FAF9F5" opacity="1.000000" stroke="none" 
	d="
M458.219788,211.013245 
	C457.044739,210.050766 455.869690,209.088287 454.293091,207.728882 
	C452.578491,206.185501 451.265442,205.039078 449.952393,203.892639 
	C455.320496,198.444855 460.663727,192.972122 466.079529,187.572174 
	C467.059998,186.594559 468.338135,185.915466 469.478882,185.098572 
	C469.649872,186.342728 470.100708,187.624054 469.941162,188.824280 
	C469.392914,192.948914 468.570007,197.036453 467.981262,201.156631 
	C467.752625,202.756729 467.868988,204.406097 467.514343,206.353851 
	C463.529449,206.718552 459.886871,206.821320 458.219788,211.013245 
z"/>
<path fill="#27563D" opacity="1.000000" stroke="none" 
	d="
M458.333496,211.387329 
	C459.886871,206.821320 463.529449,206.718552 467.515808,206.738770 
	C468.554108,209.589691 469.277069,212.376526 469.603210,215.661835 
	C468.739990,217.722717 468.273590,219.285126 467.807190,220.847519 
	C467.807190,220.847519 467.942352,220.940262 467.583496,220.824951 
	C466.606323,221.437912 465.988007,222.166199 465.369690,222.894485 
	C465.607666,223.059967 465.845642,223.225464 466.083618,223.390961 
	C466.704163,222.969833 467.324738,222.548721 467.945312,222.127579 
	C468.778900,223.192566 469.612518,224.257584 471.140930,226.210266 
	C466.440613,226.210266 462.924377,226.210266 458.957642,226.210266 
	C460.673065,222.685349 462.379730,219.178360 464.354156,215.121201 
	C462.249451,215.547058 460.915161,215.817032 459.064789,216.191437 
	C458.837524,214.561172 458.642395,213.161301 458.333496,211.387329 
z"/>
<path fill="#214E2E" opacity="1.000000" stroke="none" 
	d="
M483.015991,227.039764 
	C479.913055,226.437744 476.995331,225.516296 473.792603,224.020508 
	C473.571350,222.058594 473.635101,220.671051 473.698792,219.283508 
	C474.358917,215.148163 475.019012,211.012833 475.847351,205.823547 
	C478.623291,206.426849 481.676880,207.090515 484.730469,207.754166 
	C484.726379,208.177185 484.722290,208.600204 484.718170,209.023224 
	C482.914154,209.878067 481.110138,210.732925 479.480652,211.505066 
	C481.803741,213.954773 484.361359,215.973892 486.020386,218.567734 
	C488.245941,222.047501 484.470734,224.087372 483.015991,227.039764 
M482.862030,219.765808 
	C481.699371,218.474777 480.536743,217.183746 479.262024,215.768280 
	C475.380157,218.581543 475.075409,220.990677 479.007355,224.013947 
	C480.391235,222.775162 481.669891,221.630585 482.862030,219.765808 
z"/>
<path fill="#F1F5F0" opacity="1.000000" stroke="none" 
	d="
M449.526733,203.951019 
	C451.265442,205.039078 452.578491,206.185501 453.950012,207.661377 
	C454.008514,207.990829 453.665710,208.341446 453.208862,208.275330 
	C447.393707,205.850571 444.739838,206.794525 442.546875,211.908371 
	C441.964874,213.265533 441.542145,214.690979 440.823059,215.933960 
	C440.346558,215.528214 440.093323,215.273575 439.882629,214.646698 
	C439.561523,210.525192 437.982544,207.542542 433.975311,207.051483 
	C431.084625,206.697250 428.175842,207.244247 427.139191,210.757629 
	C425.989532,208.591171 424.898346,206.390533 423.662201,204.274612 
	C423.147888,203.394241 422.324463,202.694473 421.940765,201.411972 
	C431.211151,201.844543 439.866638,205.923431 449.526733,203.951019 
z"/>
<path fill="#214E2E" opacity="1.000000" stroke="none" 
	d="
M427.064819,211.137207 
	C428.175842,207.244247 431.084625,206.697250 433.975311,207.051483 
	C437.982544,207.542542 439.561523,210.525192 439.651245,214.874023 
	C437.652924,217.721069 435.928528,219.968536 433.576111,223.034592 
	C436.341248,223.451630 438.165039,223.726685 439.988800,224.001755 
	C440.086456,224.449631 440.184113,224.897507 440.145630,225.669922 
	C436.157867,226.420059 432.306244,226.845657 428.454651,227.271271 
	C428.170746,226.853577 427.886841,226.435867 427.602936,226.018158 
	C429.576874,222.633057 431.625885,219.288513 433.487274,215.842621 
	C434.216553,214.492447 434.641174,212.937027 434.928192,211.422699 
	C434.985962,211.117905 433.794495,210.576324 433.178986,210.143921 
	C432.363251,211.760910 431.549316,213.378830 430.728821,214.993408 
	C430.654388,215.139877 430.537720,215.264893 429.729614,216.389282 
	C428.667023,214.499069 427.828766,213.007919 427.064819,211.137207 
z"/>
<path fill="#0A4521" opacity="1.000000" stroke="none" 
	d="
M396.912811,219.583160 
	C395.302307,221.328476 393.889221,223.548553 392.165039,223.824478 
	C389.160767,224.305206 385.570709,224.152481 385.013031,219.749008 
	C384.491974,215.635162 386.782227,212.313568 390.164642,212.041290 
	C394.120544,211.722855 396.822144,214.557770 396.912811,219.583160 
z"/>
<path fill="#0A4521" opacity="1.000000" stroke="none" 
	d="
M364.707642,198.366486 
	C364.654877,201.167145 365.083801,204.408386 363.664093,206.072098 
	C362.591888,207.328644 358.858429,207.287033 356.872070,206.464478 
	C355.437042,205.870178 354.376007,203.117813 354.121765,201.198914 
	C353.652557,197.657913 356.255493,195.627579 359.726196,196.446106 
	C361.325745,196.823364 362.841248,197.557037 364.707642,198.366486 
z"/>
<path fill="#27563D" opacity="1.000000" stroke="none" 
	d="
M236.684082,202.273102 
	C237.009613,213.369293 237.012711,224.737152 237.009003,236.578979 
	C236.671936,236.334946 236.051300,235.615509 236.054886,234.899170 
	C236.108826,224.114136 236.244873,213.329498 236.684082,202.273102 
z"/>
<path fill="#B1C5AE" opacity="1.000000" stroke="none" 
	d="
M95.571136,237.737015 
	C95.504326,233.578552 95.949356,229.352020 96.118622,225.114456 
	C96.310333,220.315018 96.254799,215.505707 96.574249,210.392395 
	C96.855309,217.916428 96.912888,225.749161 96.840714,233.580688 
	C96.828140,234.944397 96.268295,236.303070 95.571136,237.737015 
z"/>
<path fill="#27563D" opacity="1.000000" stroke="none" 
	d="
M300.339508,237.694382 
	C299.983185,228.617050 299.980377,219.308899 299.990662,209.539932 
	C300.353577,210.763550 301.002960,212.448151 301.002106,214.132416 
	C300.998138,221.909515 300.813171,229.686539 300.339508,237.694382 
z"/>
<path fill="#B1C5AE" opacity="1.000000" stroke="none" 
	d="
M303.990265,208.681885 
	C304.136108,218.019638 304.077515,227.013626 304.017792,236.471252 
	C303.677765,236.299683 303.032349,235.657822 303.046051,235.030334 
	C303.240265,226.131790 303.523834,217.235184 303.990265,208.681885 
z"/>
<path fill="#27563D" opacity="1.000000" stroke="none" 
	d="
M105.885620,210.461411 
	C106.228836,211.977127 106.914368,213.952988 106.963783,215.944611 
	C107.113831,221.991898 107.017906,228.045303 107.008514,234.568939 
	C106.661934,231.166946 106.190491,227.298096 106.023766,223.416122 
	C105.845276,219.260101 105.953804,215.091736 105.885620,210.461411 
z"/>
<path fill="#D1ECDF" opacity="1.000000" stroke="none" 
	d="
M473.332336,219.281311 
	C473.635101,220.671051 473.571350,222.058594 473.527740,223.755524 
	C471.856750,223.018448 470.165588,221.971970 468.140808,220.886505 
	C468.273590,219.285126 468.739990,217.722717 469.564026,216.077438 
	C470.936371,217.089417 471.951141,218.184265 473.332336,219.281311 
z"/>
<path fill="#000000" opacity="1.000000" stroke="none" 
	d="
M140.773346,227.972214 
	C136.556732,228.251678 135.716766,225.549011 136.166504,222.840332 
	C136.453049,221.114456 138.328400,219.652405 139.491379,218.072052 
	C141.207809,219.578735 143.536087,220.774460 144.496933,222.665131 
	C145.929962,225.484955 144.071594,227.292816 140.773346,227.972214 
z"/>
<path fill="#000000" opacity="1.000000" stroke="none" 
	d="
M288.029968,227.268616 
	C285.850250,226.799713 282.398956,226.114929 282.383423,225.359451 
	C282.336121,223.059067 283.614227,220.731384 284.376343,218.414322 
	C286.208832,219.080215 288.475037,219.282776 289.783844,220.508041 
	C292.542938,223.090958 290.330719,225.164963 288.029968,227.268616 
z"/>
<path fill="#27563D" opacity="1.000000" stroke="none" 
	d="
M441.046295,216.085068 
	C441.542145,214.690979 441.964874,213.265533 442.546875,211.908371 
	C444.739838,206.794525 447.393707,205.850571 453.037415,208.450562 
	C455.264526,212.366837 456.770294,215.921402 455.162415,220.360794 
	C452.585571,227.475571 448.793274,228.563858 443.375549,223.239563 
	C442.573242,222.451080 441.875275,221.556396 441.266907,220.205841 
	C441.285309,218.495575 441.165802,217.290329 441.046295,216.085068 
M451.838318,219.906387 
	C451.924835,217.615189 452.342468,215.266510 451.958862,213.056931 
	C451.765778,211.945007 449.895477,210.144714 449.175781,210.314835 
	C447.821991,210.634796 445.756500,212.157852 445.756409,213.180847 
	C445.756165,215.966858 446.624084,218.768875 447.414307,221.487137 
	C447.450073,221.610092 450.090851,220.975708 451.838318,219.906387 
z"/>
<path fill="#000000" opacity="1.000000" stroke="none" 
	d="
M440.823059,215.933960 
	C441.165802,217.290329 441.285309,218.495575 441.132355,219.894501 
	C440.613739,221.157272 440.367554,222.226364 440.055084,223.648621 
	C438.165039,223.726685 436.341248,223.451630 433.576111,223.034592 
	C435.928528,219.968536 437.652924,217.721069 439.608673,215.246262 
	C440.093323,215.273575 440.346558,215.528214 440.823059,215.933960 
z"/>
<path fill="#D1ECDF" opacity="1.000000" stroke="none" 
	d="
M467.949463,221.795532 
	C467.324738,222.548721 466.704163,222.969833 466.083618,223.390961 
	C465.845642,223.225464 465.607666,223.059967 465.369690,222.894485 
	C465.988007,222.166199 466.606323,221.437912 467.534882,220.758957 
	C467.881317,221.026703 467.917511,221.245102 467.949463,221.795532 
z"/>
<path fill="#000000" opacity="1.000000" stroke="none" 
	d="
M482.905273,220.125916 
	C481.669891,221.630585 480.391235,222.775162 479.007355,224.013947 
	C475.075409,220.990677 475.380157,218.581543 479.262024,215.768280 
	C480.536743,217.183746 481.699371,218.474777 482.905273,220.125916 
z"/>
<path fill="#D1ECDF" opacity="1.000000" stroke="none" 
	d="
M451.678284,220.300232 
	C450.090851,220.975708 447.450073,221.610092 447.414307,221.487137 
	C446.624084,218.768875 445.756165,215.966858 445.756409,213.180847 
	C445.756500,212.157852 447.821991,210.634796 449.175781,210.314835 
	C449.895477,210.144714 451.765778,211.945007 451.958862,213.056931 
	C452.342468,215.266510 451.924835,217.615189 451.678284,220.300232 
z"/>
</svg>